<?xml version="1.0" encoding="UTF-8" standalone="no"?>
<!-- Created with Inkscape (http://www.inkscape.org/) -->

<svg
   xmlns:dc="http://purl.org/dc/elements/1.1/"
   xmlns:cc="http://creativecommons.org/ns#"
   xmlns:rdf="http://www.w3.org/1999/02/22-rdf-syntax-ns#"
   xmlns:svg="http://www.w3.org/2000/svg"
   xmlns="http://www.w3.org/2000/svg"
   xmlns:sodipodi="http://sodipodi.sourceforge.net/DTD/sodipodi-0.dtd"
   xmlns:inkscape="http://www.inkscape.org/namespaces/inkscape"
   width="426.36008"
   height="386.99146"
   id="svg2"
   version="1.1"
   inkscape:version="0.48.1 r9760"
   sodipodi:docname="eggs.svg">
  <defs
     id="defs4" />
  <sodipodi:namedview
     id="base"
     pagecolor="#ffffff"
     bordercolor="#666666"
     borderopacity="1.0"
     inkscape:pageopacity="0.0"
     inkscape:pageshadow="2"
     inkscape:zoom="1"
     inkscape:cx="213.18003"
     inkscape:cy="193.20134"
     inkscape:document-units="px"
     inkscape:current-layer="layer1"
     showgrid="false"
     fit-margin-top="40"
     fit-margin-left="40"
     fit-margin-right="40"
     fit-margin-bottom="40"
     inkscape:window-width="850"
     inkscape:window-height="615"
     inkscape:window-x="220"
     inkscape:window-y="139"
     inkscape:window-maximized="0" />
  <metadata
     id="metadata7">
    <rdf:RDF>
      <cc:Work
         rdf:about="">
        <dc:format>image/svg+xml</dc:format>
        <dc:type
           rdf:resource="http://purl.org/dc/dcmitype/StillImage" />
        <dc:title></dc:title>
      </cc:Work>
    </rdf:RDF>
  </metadata>
  <g
     inkscape:label="Layer 1"
     inkscape:groupmode="layer"
     id="layer1"
     transform="translate(-85.68736,-102.42783)">
    <path
       style="fill:#de0f8d;fill-opacity:0.70588235;stroke:#ffffff;stroke-width:1.52982187;stroke-miterlimit:4;stroke-dasharray:1.52982186, 3.0596437;stroke-dashoffset:0"
       d="m 165.18736,177.1642 c -21.3928,0 -38.73509,28.48831 -38.73509,60.27931 0,22.74911 17.34229,41.19087 38.73509,41.19087 21.3928,0 38.73509,-18.44176 38.73509,-41.19087 0,-29.7817 -17.34229,-60.27931 -38.73509,-60.27931 z"
       id="path3825"
       inkscape:connector-curvature="0"
       sodipodi:nodetypes="sssss"
       inkscape:export-filename="/home/bow/PHP/Ximple/theme/ximplepeople/image/egg-ceo.png"
       inkscape:export-xdpi="90"
       inkscape:export-ydpi="90" />
    <path
       style="fill:#c0772a;fill-opacity:0.70588235;stroke:#ffffff;stroke-width:1.52982187;stroke-miterlimit:4;stroke-dasharray:1.52982184, 3.05964368;stroke-dashoffset:0"
       d="m 174.4429,347.18419 c -21.39279,0 -38.73509,28.48831 -38.73509,60.27932 0,22.74911 17.3423,41.19086 38.73509,41.19086 21.39279,0 38.73509,-18.44175 38.73509,-41.19086 0,-29.7817 -17.3423,-60.27932 -38.73509,-60.27932 z"
       id="path3825-5"
       inkscape:connector-curvature="0"
       sodipodi:nodetypes="sssss"
       inkscape:export-filename="/home/bow/PHP/Ximple/theme/ximplepeople/image/egg-creative.png"
       inkscape:export-xdpi="90"
       inkscape:export-ydpi="90" />
    <path
       style="fill:#7e1917;fill-opacity:0.8627451;stroke:#ffffff;stroke-width:1.52982187;stroke-miterlimit:4;stroke-dasharray:1.52982184, 3.05964368;stroke-dashoffset:0"
       d="m 283.33335,178.05335 c -21.39279,0 -38.73509,28.48831 -38.73509,60.27932 0,22.74911 17.3423,41.19086 38.73509,41.19086 21.39279,0 38.73509,-18.44175 38.73509,-41.19086 0,-29.7817 -17.3423,-60.27932 -38.73509,-60.27932 z"
       id="path3825-5-3"
       inkscape:connector-curvature="0"
       sodipodi:nodetypes="sssss"
       inkscape:export-filename="/home/bow/PHP/Ximple/theme/ximplepeople/image/egg-dictator.png"
       inkscape:export-xdpi="90"
       inkscape:export-ydpi="90" />
    <path
       style="fill:#08757f;fill-opacity:0.70588235;stroke:#ffffff;stroke-width:1.52982187;stroke-miterlimit:4;stroke-dasharray:1.52982184, 3.05964368;stroke-dashoffset:0"
       d="m 290.22655,345.08527 c -21.39279,0 -38.73509,28.48831 -38.73509,60.27932 0,22.74911 17.3423,41.19086 38.73509,41.19086 21.39279,0 38.73509,-18.44175 38.73509,-41.19086 0,-29.7817 -17.3423,-60.27932 -38.73509,-60.27932 z"
       id="path3825-5-3-5"
       inkscape:connector-curvature="0"
       sodipodi:nodetypes="sssss"
       inkscape:export-filename="/home/bow/PHP/Ximple/theme/ximplepeople/image/egg-please.png"
       inkscape:export-xdpi="90"
       inkscape:export-ydpi="90" />
    <path
       style="fill:#803e98;fill-opacity:0.70588235;stroke:#ffffff;stroke-width:1.52982187;stroke-miterlimit:4;stroke-dasharray:1.52982184, 3.05964368;stroke-dashoffset:0"
       d="m 407.20763,177.75286 c -21.39279,0 -38.73509,28.48831 -38.73509,60.27932 0,22.74911 17.3423,41.19086 38.73509,41.19086 21.39279,0 38.73509,-18.44175 38.73509,-41.19086 0,-29.7817 -17.3423,-60.27932 -38.73509,-60.27932 z"
       id="path3825-5-3-5-7"
       inkscape:connector-curvature="0"
       sodipodi:nodetypes="sssss"
       inkscape:export-filename="/home/bow/PHP/Ximple/theme/ximplepeople/image/egg-queen.png"
       inkscape:export-xdpi="90"
       inkscape:export-ydpi="90" />
    <path
       style="fill:#b5d553;fill-opacity:0.70588235;stroke:#ffffff;stroke-width:1.52982187;stroke-miterlimit:4;stroke-dasharray:1.52982184, 3.05964368;stroke-dashoffset:0"
       d="m 410.00467,347.13336 c -21.39279,0 -38.73509,28.48831 -38.73509,60.27932 0,22.74911 17.3423,41.19086 38.73509,41.19086 21.39279,0 38.73509,-18.44175 38.73509,-41.19086 0,-29.7817 -17.3423,-60.27932 -38.73509,-60.27932 z"
       id="path3825-5-3-5-2"
       inkscape:connector-curvature="0"
       sodipodi:nodetypes="sssss"
       inkscape:export-xdpi="90"
       inkscape:export-ydpi="90"
       inkscape:export-filename="/home/bow/PHP/Ximple/theme/ximplepeople/image/egg-comrade.png" />
  </g>
</svg>
